SplineFontDB: 3.2
FontName: aghtex_mathcal
FullName: aghtex_mathcal
FamilyName: aghtex_mathcal
Weight: Book
Copyright: Copyright (C) 2012-2019 KM, 1997, 2009 American Mathematical Society (<http://www.ams.org>), with Reserved Font Name CMSY10.
Version: 3.2.0.1
ItalicAngle: -14.04
UnderlinePosition: -100
UnderlineWidth: 50
Ascent: 819
Descent: 205
InvalidEm: 0
LayerCount: 2
Layer: 0 1 "+gMyXYgAA" 1
Layer: 1 1 "+Uk2XYgAA" 0
UniqueID: 5096646
FSType: 8
OS2Version: 1
OS2_WeightWidthSlopeOnly: 0
OS2_UseTypoMetrics: 0
CreationTime: 1344259763
ModificationTime: 1575819580
PfmFamily: 17
TTFWeight: 400
TTFWidth: 5
LineGap: 92
VLineGap: 0
OS2TypoAscent: 0
OS2TypoAOffset: 1
OS2TypoDescent: 0
OS2TypoDOffset: 1
OS2TypoLinegap: 92
OS2WinAscent: 0
OS2WinAOffset: 1
OS2WinDescent: 0
OS2WinDOffset: 1
HheadAscent: 0
HheadAOffset: 1
HheadDescent: 0
HheadDOffset: 1
OS2Vendor: 'PfEd'
MarkAttachClasses: 1
DEI: 91125
TtTable: prep
PUSHW_1
 511
SCANCTRL
PUSHB_1
 1
SCANTYPE
SVTCA[y-axis]
MPPEM
PUSHB_1
 8
LT
IF
PUSHB_2
 1
 1
INSTCTRL
EIF
PUSHB_2
 70
 6
CALL
IF
POP
PUSHB_1
 16
EIF
MPPEM
PUSHB_1
 20
GT
IF
POP
PUSHB_1
 128
EIF
SCVTCI
PUSHB_1
 6
CALL
NOT
IF
SVTCA[y-axis]
PUSHB_1
 3
DUP
RCVT
PUSHB_1
 3
CALL
WCVTP
PUSHB_1
 4
DUP
RCVT
PUSHB_3
 3
 27
 2
CALL
PUSHB_1
 3
CALL
WCVTP
SVTCA[x-axis]
PUSHB_1
 5
DUP
RCVT
PUSHB_1
 3
CALL
WCVTP
PUSHB_1
 6
DUP
RCVT
PUSHB_3
 5
 27
 2
CALL
PUSHB_2
 3
 70
SROUND
CALL
WCVTP
EIF
PUSHB_1
 20
CALL
EndTTInstrs
TtTable: fpgm
PUSHB_1
 0
FDEF
PUSHB_1
 0
SZP0
MPPEM
PUSHB_1
 42
LT
IF
PUSHB_1
 74
SROUND
EIF
PUSHB_1
 0
SWAP
MIAP[rnd]
RTG
PUSHB_1
 6
CALL
IF
RTDG
EIF
MPPEM
PUSHB_1
 42
LT
IF
RDTG
EIF
DUP
MDRP[rp0,rnd,grey]
PUSHB_1
 1
SZP0
MDAP[no-rnd]
RTG
ENDF
PUSHB_1
 1
FDEF
DUP
MDRP[rp0,min,white]
PUSHB_1
 12
CALL
ENDF
PUSHB_1
 2
FDEF
MPPEM
GT
IF
RCVT
SWAP
EIF
POP
ENDF
PUSHB_1
 3
FDEF
ROUND[Black]
RTG
DUP
PUSHB_1
 64
LT
IF
POP
PUSHB_1
 64
EIF
ENDF
PUSHB_1
 4
FDEF
PUSHB_1
 6
CALL
IF
POP
SWAP
POP
ROFF
IF
MDRP[rp0,min,rnd,black]
ELSE
MDRP[min,rnd,black]
EIF
ELSE
MPPEM
GT
IF
IF

StartChar: A
Encoding: 65 65 0
Width: 798
VWidth: 1000
Flags: W
HStem: -55 102<94.5544 167.987> -35 65<667.5 745.655> 160 65<365.564 585>
VStem: 22 54<65.4897 101.909> 570 95<366.723 580 669 670>
LayerCount: 2
Fore
SplineSet
590 160 m 1,0,-1
 326 160 l 1,1,2
 313 139 313 139 301 121.5 c 128,-1,3
 289 104 289 104 262.5 68 c 128,-1,4
 236 32 236 32 214 8 c 128,-1,5
 192 -16 192 -16 164.5 -35.5 c 128,-1,6
 137 -55 137 -55 117 -55 c 0,7,8
 80 -55 80 -55 51 -27 c 128,-1,9
 22 1 22 1 22 34 c 0,10,11
 22 57 22 57 35.5 86 c 128,-1,12
 49 115 49 115 64 115 c 0,13,14
 72 115 72 115 75 104 c 0,15,-1
 76 104 l 1,16,-1
 76 103 l 2,17,18
 82 78 82 78 102 62.5 c 128,-1,19
 122 47 122 47 148 47 c 0,20,21
 165 47 165 47 191.5 71 c 128,-1,22
 218 95 218 95 252 140.5 c 128,-1,23
 286 186 286 186 307.5 218 c 128,-1,24
 329 250 329 250 361 299 c 0,25,26
 477 480 477 480 565 669 c 2,27,-1
 566 669 l 1,28,-1
 566 670 l 1,29,-1
 573 681 l 2,30,31
 586 701 586 701 611 714 c 128,-1,32
 636 727 636 727 650 727 c 0,33,34
 666 727 666 727 666 702 c 0,35,36
 666 690 666 690 665.5 665 c 128,-1,37
 665 640 665 640 665 628 c 0,38,39
 665 482 665 482 676 322 c 0,40,41
 684 189 684 189 700 113 c 0,42,43
 710 63 710 63 717.5 46.5 c 128,-1,44
 725 30 725 30 741 30 c 0,45,46
 743 30 743 30 749 33 c 0,47,48
 770 47 770 47 789 47 c 0,49,50
 803 47 803 47 803 35 c 0,51,52
 803 16 803 16 756.5 -9.5 c 128,-1,53
 710 -35 710 -35 676 -35 c 0,54,55
 659 -35 659 -35 648 -31 c 128,-1,56
 637 -27 637 -27 630.5 -15.5 c 128,-1,57
 624 -4 624 -4 620.5 5.5 c 128,-1,58
 617 15 617 15 612 36 c 0,59,60
 595 98 595 98 590 160 c 1,0,-1
570 580 m 1,61,62
 526 491 526 491 488 425 c 0,63,64
 437 332 437 332 365 217 c 1,65,66
 383 225 383 225 407 225 c 2,67,-1
 585 225 l 1,68,69
 580 283 580 283 575 367 c 0,70,71
 570 464 570 464 570 541 c 2,72,-1
 570 580 l 1,61,62
EndSplineSet
Validated: 3073
EndChar

StartChar: B
Encoding: 66 66 1
Width: 656
VWidth: 1000
Flags: W
HStem: -27 65<260.793 408.095> 646 65<435.102 544.476>
VStem: 536 95<149.661 274.113> 575 95<532.604 616.34>
LayerCount: 2
Fore
SplineSet
144 74 m 1,0,1
 178 101 178 101 204 101 c 0,2,3
 214 101 214 101 221 92 c 0,4,5
 271 38 271 38 344 38 c 0,6,7
 380 38 380 38 412.5 46.5 c 128,-1,8
 445 55 445 55 473.5 72.5 c 128,-1,9
 502 90 502 90 519 122 c 128,-1,10
 536 154 536 154 536 197 c 0,11,12
 536 264 536 264 485 305.5 c 128,-1,13
 434 347 434 347 358 347 c 0,14,15
 346 347 346 347 328.5 345 c 128,-1,16
 311 343 311 343 310 343 c 0,17,18
 295 343 295 343 295 355 c 0,19,20
 295 385 295 385 379 413 c 0,21,22
 413 424 413 424 431 430.5 c 128,-1,23
 449 437 449 437 476 448.5 c 128,-1,24
 503 460 503 460 517.5 470 c 128,-1,25
 532 480 532 480 547 494.5 c 128,-1,26
 562 509 562 509 568.5 526 c 128,-1,27
 575 543 575 543 575 563 c 0,28,29
 575 599 575 599 546 622.5 c 128,-1,30
 517 646 517 646 477 646 c 0,31,32
 432 646 432 646 398.5 624.5 c 128,-1,33
 365 603 365 603 330 553 c 0,34,35
 252 440 252 440 200 235 c 0,36,37
 177 148 177 148 144 74 c 1,0,1
129 41 m 1,38,39
 124 31 124 31 118 22 c 0,40,41
 106 1 106 1 81 -13 c 128,-1,42
 56 -27 56 -27 40 -27 c 0,43,44
 25 -27 25 -27 25 -15 c 0,45,46
 25 -11 25 -11 31 -1 c 0,47,48
 67 71 67 71 87 134.5 c 128,-1,49
 107 198 107 198 135 326 c 0,50,51
 171 500 171 500 188 629 c 1,52,53
 148 609 148 609 137 609 c 0,54,55
 121 609 121 609 121 620 c 0,56,57
 121 630 121 630 133 641 c 128,-1,58
 145 652 145 652 158 659 c 128,-1,59
 171 666 171 666 197 679 c 0,60,61
 204 683 204 683 208 684 c 0,62,63
 259 710 259 710 271 710 c 0,64,65
 287 710 287 710 287 695 c 0,66,67
 287 690 287 690 285 678 c 2,68,-1
 268 564 l 1,69,70
 309 612 309 612 354.5 644.5 c 128,-1,71
 400 677 400 677 439 690 c 128,-1,72
 478 703 478 703 501 707 c 128,-1,73
 524 711 524 711 543 711 c 0,74,75
 600 711 600 711 635 681 c 128,-1,76
 670 651 670 651 670 605 c 0,77,78
 670 572 670 572 652.5 540.5 c 128,-1,79
 635 509 635 509 606 484 c 128,-1,80
 577 459 577 459 547 440.5 c 128,-1,81
 517 422 517 422 484 407 c 1,82,83
 555 390 555 390 593 345.5 c 128,-1,84
 631 301 631 301 631 239 c 0,85,86
 631 161 631 161 571.5 98 c 128,-1,87
 512 35 512 35 432.5 4 c 128,-1,88
 353 -27 353 -27 278 -27 c 0,89,90
 171 -27 171 -27 129 41 c 1,38,39
EndSplineSet
Validated: 3073
EndChar

StartChar: C
Encoding: 67 67 2
Width: 526
VWidth: 1000
Flags: W
HStem: -29 65<186.065 311.811> 645 65<328.915 496>
VStem: 7 95<126.915 348.592> 444 95<562.042 676>
LayerCount: 2
Fore
SplineSet
501 157 m 0,0,1
 501 136 501 136 451 87 c 0,2,3
 357 -6 357 -6 247 -25 c 0,4,5
 224 -29 224 -29 202 -29 c 0,6,7
 112 -29 112 -29 59.5 32 c 128,-1,8
 7 93 7 93 7 203 c 0,9,10
 7 230 7 230 11.5 262 c 128,-1,11
 16 294 16 294 28 343.5 c 128,-1,12
 40 393 40 393 68.5 449.5 c 128,-1,13
 97 506 97 506 139 557 c 0,14,15
 159 581 159 581 188 605.5 c 128,-1,16
 217 630 217 630 257.5 654.5 c 128,-1,17
 298 679 298 679 349.5 694.5 c 128,-1,18
 401 710 401 710 453 710 c 0,19,20
 539 710 539 710 539 642 c 0,21,22
 539 633 539 633 537 622.5 c 128,-1,23
 535 612 535 612 531.5 601 c 128,-1,24
 528 590 528 590 523.5 578.5 c 128,-1,25
 519 567 519 567 514 556 c 128,-1,26
 509 545 509 545 504.5 535 c 128,-1,27
 500 525 500 525 495 516.5 c 128,-1,28
 490 508 490 508 486.5 502 c 128,-1,29
 483 496 483 496 481 491.5 c 128,-1,30
 479 487 479 487 478 487 c 2,31,-1
 478 486 l 2,32,33
 468 472 468 472 444.5 459 c 128,-1,34
 421 446 421 446 405 446 c 128,-1,35
 389 446 389 446 389 458 c 0,36,37
 389 463 389 463 396 475 c 0,38,39
 410 498 410 498 427 538 c 128,-1,40
 444 578 444 578 444 599 c 0,41,42
 444 645 444 645 387 645 c 0,43,44
 317 645 317 645 272.5 615.5 c 128,-1,45
 228 586 228 586 190 531 c 0,46,47
 151 473 151 473 126.5 393 c 128,-1,48
 102 313 102 313 102 246 c 0,49,50
 102 141 102 141 149.5 88.5 c 128,-1,51
 197 36 197 36 268 36 c 0,52,53
 352 36 352 36 404 115 c 0,54,55
 405 116 405 116 406 118 c 0,56,57
 422 141 422 141 441 153 c 2,58,-1
 443 154 l 2,59,60
 444 154 444 154 460 161.5 c 128,-1,61
 476 169 476 169 486 169 c 0,62,63
 501 169 501 169 501 157 c 0,0,1
EndSplineSet
Validated: 3073
EndChar

StartChar: D
Encoding: 68 68 3
Width: 771
VWidth: 1000
Flags: W
HStem: -5 65<216 358.339> 623 65<359.197 530.75>
VStem: 676 95<329.701 504.486>
LayerCount: 2
Fore
SplineSet
204 -5 m 2,0,-1
 101 -5 l 2,1,2
 73 -5 73 -5 73 7 c 0,3,4
 73 18 73 18 91 32.5 c 128,-1,5
 109 47 109 47 135 57 c 1,6,7
 248 340 248 340 271 623 c 1,8,9
 214 620 214 620 179 607.5 c 128,-1,10
 144 595 144 595 132 581 c 128,-1,11
 120 567 120 567 113 545 c 0,12,13
 108 530 108 530 102 522 c 128,-1,14
 96 514 96 514 81 504 c 0,15,16
 49 484 49 484 31 484 c 0,17,18
 16 484 16 484 16 497 c 0,19,20
 16 502 16 502 19 511.5 c 128,-1,21
 22 521 22 521 32 539 c 128,-1,22
 42 557 42 557 58 574.5 c 128,-1,23
 74 592 74 592 103.5 613.5 c 128,-1,24
 133 635 133 635 171 652 c 0,25,26
 211 669 211 669 252 677 c 128,-1,27
 293 685 293 685 320.5 686.5 c 128,-1,28
 348 688 348 688 402 688 c 0,29,30
 450 688 450 688 475.5 687 c 128,-1,31
 501 686 501 686 540.5 681 c 128,-1,32
 580 676 580 676 613 664 c 128,-1,33
 646 652 646 652 678 631 c 0,34,35
 771 572 771 572 771 451 c 0,36,37
 771 371 771 371 734.5 297.5 c 128,-1,38
 698 224 698 224 638.5 170 c 128,-1,39
 579 116 579 116 505 76 c 128,-1,40
 431 36 431 36 353 15.5 c 128,-1,41
 275 -5 275 -5 204 -5 c 2,0,-1
216 60 m 1,42,-1
 263 60 l 2,43,44
 441 60 441 60 558.5 161 c 128,-1,45
 676 262 676 262 676 408 c 0,46,47
 676 451 676 451 662 486 c 128,-1,48
 648 521 648 521 627 543 c 128,-1,49
 606 565 606 565 575 581 c 128,-1,50
 544 597 544 597 517 605 c 128,-1,51
 490 613 490 613 456 617 c 128,-1,52
 422 621 422 621 403.5 622 c 128,-1,53
 385 623 385 623 362 623 c 1,54,55
 352 542 352 542 342.5 481 c 128,-1,56
 333 420 333 420 300 302.5 c 128,-1,57
 267 185 267 185 216 60 c 1,42,-1
EndSplineSet
Validated: 3073
EndChar

StartChar: E
Encoding: 69 69 4
Width: 527
VWidth: 1000
Flags: W
HStem: -27 65<172.737 308.422> 343 65<294.984 390.27> 645 65<333.868 462.866>
VStem: 23 95<85.8809 185.464> 140 95<460.026 556.245> 475 95<577.677 673.5>
LayerCount: 2
Fore
SplineSet
227 362 m 1,0,1
 189 378 189 378 164.5 406.5 c 128,-1,2
 140 435 140 435 140 475 c 0,3,4
 140 566 140 566 241.5 638 c 128,-1,5
 343 710 343 710 451 710 c 0,6,7
 570 710 570 710 570 637 c 0,8,9
 570 596 570 596 536 566 c 128,-1,10
 502 536 502 536 473 536 c 0,11,12
 458 536 458 536 458 548 c 0,13,14
 458 553 458 553 464 562 c 0,15,16
 475 579 475 579 475 595 c 128,-1,17
 475 611 475 611 464.5 622 c 128,-1,18
 454 633 454 633 437 637.5 c 128,-1,19
 420 642 420 642 408 643.5 c 128,-1,20
 396 645 396 645 385 645 c 0,21,22
 338 645 338 645 305 629 c 128,-1,23
 272 613 272 613 258.5 589 c 128,-1,24
 245 565 245 565 240 548 c 128,-1,25
 235 531 235 531 235 518 c 0,26,27
 235 502 235 502 241.5 485.5 c 128,-1,28
 248 469 248 469 264.5 451.5 c 128,-1,29
 281 434 281 434 315.5 422 c 128,-1,30
 350 410 350 410 399 408 c 0,31,32
 414 408 414 408 414 396 c 0,33,34
 414 382 414 382 387 363 c 128,-1,35
 360 344 360 344 327 343 c 0,36,37
 283 341 283 341 246 324.5 c 128,-1,38
 209 308 209 308 186.5 284.5 c 128,-1,39
 164 261 164 261 147.5 233.5 c 128,-1,40
 131 206 131 206 124.5 183.5 c 128,-1,41
 118 161 118 161 118 145 c 0,42,43
 118 95 118 95 162 66.5 c 128,-1,44
 206 38 206 38 263 38 c 0,45,46
 293 38 293 38 318.5 46.5 c 128,-1,47
 344 55 344 55 362.5 70.5 c 128,-1,48
 381 86 381 86 390 96.5 c 128,-1,49
 399 107 399 107 411 123 c 0,50,51
 427 145 427 145 450.5 157 c 128,-1,52
 474 169 474 169 488 169 c 0,53,54
 503 169 503 169 503 157 c 0,55,56
 503 146 503 146 478 117 c 128,-1,57
 453 88 453 88 414 55.5 c 128,-1,58
 375 23 375 23 315.5 -2 c 128,-1,59
 256 -27 256 -27 197 -27 c 0,60,61
 123 -27 123 -27 73 8 c 128,-1,62
 23 43 23 43 23 102 c 0,63,64
 23 114 23 114 25.5 129 c 128,-1,65
 28 144 28 144 40 173.5 c 128,-1,66
 52 203 52 203 72.5 232 c 128,-1,67
 93 261 93 261 133 296.5 c 128,-1,68
 173 332 173 332 227 362 c 1,0,1
EndSplineSet
Validated: 3073
EndChar

StartChar: F
Encoding: 70 70 5
Width: 719
VWidth: 1000
Flags: W
HStem: -37 66<141.408 207.781> 289 75<584.127 655.754> 299 65<426 598.658> 589 100<740.157 815.632> 624 65<249.623 414 495.703 736.874>
VStem: 12 95<48 96>
LayerCount: 2
Fore
SplineSet
14 40 m 0,0,1
 12 45 12 45 12 48 c 0,2,3
 12 64 12 64 43.5 83 c 128,-1,4
 75 102 75 102 95 102 c 0,5,6
 98 102 98 102 100 101 c 128,-1,7
 102 100 102 100 104 98 c 0,8,9
 107 96 l 0,10,11
 107 94 107 94 108 92 c 128,-1,12
 109 90 109 90 110 89 c 0,13,14
 145 30 145 30 198 29 c 1,15,16
 199 30 199 30 210 50 c 0,17,18
 228 86 l 0,19,20
 238 106 238 106 246 124 c 128,-1,21
 254 142 254 142 261 158 c 0,22,23
 265 166 265 166 269 176 c 0,24,25
 411 513 411 513 411 611 c 0,26,27
 411 613 411 613 414 624 c 1,28,-1
 358 624 l 2,29,30
 343 624 343 624 313 623 c 128,-1,31
 283 622 283 622 268 622 c 1,32,33
 255 609 255 609 236 599 c 128,-1,34
 217 589 217 589 200 589 c 0,35,36
 189 589 189 589 185 599 c 2,37,-1
 185 601 l 1,38,-1
 185 602 l 2,39,40
 197 642 197 642 248 666 c 0,41,42
 300 689 300 689 345 689 c 2,43,-1
 722 689 l 2,44,45
 728 689 728 689 734 689 c 0,46,47
 744 689 744 689 750 689 c 0,48,49
 759 690 759 690 767 690 c 0,50,51
 835 690 835 690 835 645 c 0,52,53
 835 623 835 623 804.5 603 c 128,-1,54
 774 583 774 583 752 583 c 0,55,56
 745 583 745 583 740 587 c 2,57,-1
 740 588 l 2,58,59
 737 594 737 594 737 596 c 0,60,61
 737 605 l 0,62,63
 738 609 738 609 737 610 c 0,64,65
 733 615 733 615 725 617 c 0,66,67
 714 620 714 620 708 621 c 0,68,69
 707 621 707 621 686 623 c 0,70,71
 673 624 673 624 665 624 c 0,72,73
 658 624 658 624 645 624 c 0,74,75
 631 624 631 624 629 624 c 2,76,-1
 501 624 l 1,77,78
 496 602 496 602 480 541 c 0,79,80
 468 497 468 497 451 444 c 128,-1,81
 434 391 434 391 426 364 c 1,82,-1
 659 364 l 2,83,84
 683 364 683 364 683 353 c 0,85,86
 683 329 683 329 652 309 c 128,-1,87
 621 289 621 289 599 289 c 0,88,89
 588 289 588 289 584 299 c 1,90,-1
 401 299 l 1,91,92
 328 128 328 128 307 88 c 0,93,94
 288 51 288 51 277 39 c 0,95,96
 254 13 254 13 209 -14 c 0,97,98
 170 -37 170 -37 131 -37 c 128,-1,99
 92 -37 92 -37 60 -16.5 c 128,-1,100
 28 4 28 4 14 40 c 0,0,1
EndSplineSet
Validated: 3073
EndChar

StartChar: G
Encoding: 71 71 6
Width: 594
VWidth: 1000
Flags: W
HStem: -124 65<171.07 312.905> 63 65<205.808 324.322> 645 65<339.562 499.999>
VStem: 39 95<207.312 407.85> 511 95<574.507 660.5>
LayerCount: 2
Fore
SplineSet
427 145 m 1,0,1
 318 63 318 63 218 63 c 0,2,3
 126 63 126 63 82.5 124 c 128,-1,4
 39 185 39 185 39 272 c 0,5,6
 39 388 39 388 99.5 489.5 c 128,-1,7
 160 591 160 591 260 650.5 c 128,-1,8
 360 710 360 710 473 710 c 0,9,10
 522 710 522 710 560 698 c 0,11,12
 606 683 606 683 606 638 c 0,13,14
 606 601 606 601 557 534 c 0,15,16
 509 468 509 468 464 468 c 0,17,18
 448 468 448 468 448 480 c 0,19,20
 448 487 448 487 456 495 c 0,21,22
 462 503 l 0,23,24
 468 511 468 511 473 518.5 c 128,-1,25
 478 526 478 526 485.5 537.5 c 128,-1,26
 493 549 493 549 498 558.5 c 128,-1,27
 503 568 503 568 507 578.5 c 128,-1,28
 511 589 511 589 511 596 c 0,29,30
 511 625 511 625 479 634 c 0,31,32
 445 645 445 645 407 645 c 0,33,34
 368 645 368 645 336 637 c 128,-1,35
 304 629 304 629 281.5 614.5 c 128,-1,36
 259 600 259 600 247 589 c 128,-1,37
 235 578 235 578 222 562 c 0,38,39
 181 512 181 512 157.5 443.5 c 128,-1,40
 134 375 134 375 134 315 c 0,41,42
 134 230 134 230 174 179 c 128,-1,43
 214 128 214 128 283 128 c 0,44,45
 317 128 317 128 347.5 143.5 c 128,-1,46
 378 159 378 159 398 180.5 c 128,-1,47
 418 202 418 202 435 229 c 128,-1,48
 452 256 452 256 459.5 274.5 c 128,-1,49
 467 293 467 293 471 306 c 0,50,51
 477 326 477 326 482.5 334.5 c 128,-1,52
 488 343 488 343 504 354 c 0,53,54
 534 374 534 374 554 374 c 0,55,56
 570 374 570 374 570 360 c 0,57,58
 570 348 570 348 529 206 c 0,59,60
 515 149 515 149 483 80 c 0,61,62
 456 21 456 21 420 -21 c 128,-1,63
 384 -63 384 -63 346.5 -84.5 c 128,-1,64
 309 -106 309 -106 276.5 -115 c 128,-1,65
 244 -124 244 -124 213 -124 c 0,66,67
 170 -124 170 -124 130 -113.5 c 128,-1,68
 90 -103 90 -103 68.5 -90.5 c 128,-1,69
 47 -78 47 -78 47 -69 c 0,70,71
 47 -55 47 -55 73.5 -36 c 128,-1,72
 100 -17 100 -17 132 -16 c 2,73,-1
 133 -16 l 1,74,-1
 135 -17 l 2,75,76
 161 -35 161 -35 194.5 -45 c 128,-1,77
 228 -55 228 -55 246.5 -57 c 128,-1,78
 265 -59 265 -59 279 -59 c 0,79,80
 294 -59 294 -59 302 -58 c 128,-1,81
 310 -57 310 -57 321.5 -51 c 128,-1,82
 333 -45 333 -45 344 -30.5 c 128,-1,83
 355 -16 355 -16 369 9 c 0,84,85
 399 57 399 57 427 145 c 1,0,1
EndSplineSet
Validated: 3073
EndChar

StartChar: H
Encoding: 72 72 7
Width: 844
VWidth: 1000
Flags: W
HStem: -54 65<578 707.164> 275 65<165.796 235 338 577.529> 623 65<198.773 355>
VStem: 133 84<-29.3188 27.7791> 235 84<205.438 275> 296 95<464.609 657.5> 529 95<-7 164.862> 707 82<613.984 655>
LayerCount: 2
Fore
SplineSet
338 340 m 1,0,-1
 595 340 l 1,1,2
 651 529 651 529 695 638 c 0,3,4
 697 642 697 642 707 654 c 2,5,-1
 707 655 l 1,6,-1
 708 656 l 2,7,8
 723 669 723 669 742 678.5 c 128,-1,9
 761 688 761 688 774 688 c 0,10,11
 789 688 789 688 789 676 c 0,12,13
 789 671 789 671 786 663 c 0,14,15
 666 345 666 345 634 137 c 0,16,17
 624 64 624 64 624 49 c 0,18,19
 624 30 624 30 635 20.5 c 128,-1,20
 646 11 646 11 660 11 c 0,21,22
 677 12 677 12 690 14 c 0,23,24
 704 16 704 16 706 17 c 128,-1,25
 708 18 708 18 711 23 c 0,26,27
 715 30 715 30 722 39.5 c 128,-1,28
 729 49 729 49 749.5 64 c 128,-1,29
 770 79 770 79 791 79 c 0,30,31
 806 79 806 79 806 66 c 0,32,33
 806 31 806 31 745 -11.5 c 128,-1,34
 684 -54 684 -54 594 -54 c 0,35,36
 562 -54 562 -54 545.5 -37 c 128,-1,37
 529 -20 529 -20 529 6 c 0,38,39
 529 88 529 88 578 281 c 1,40,41
 563 275 563 275 540 275 c 2,42,-1
 319 275 l 1,43,44
 279 134 279 134 229 8 c 0,45,46
 225 -2 225 -2 217 -11 c 0,47,-1
 217 -12 l 2,48,49
 202 -27 202 -27 181.5 -36.5 c 128,-1,50
 161 -46 161 -46 148 -46 c 0,51,52
 133 -46 133 -46 133 -34 c 0,53,54
 133 -30 133 -30 142 -6 c 0,55,56
 184 107 184 107 235 275 c 1,57,-1
 170 275 l 2,58,59
 142 275 142 275 142 287 c 0,60,61
 142 302 142 302 170 320.5 c 128,-1,62
 198 339 198 339 221 340 c 2,63,-1
 253 340 l 1,64,65
 272 420 272 420 281 468 c 0,66,67
 294 543 294 543 296 584 c 0,68,69
 296 623 296 623 253 623 c 0,70,71
 211 623 211 623 182.5 611 c 128,-1,72
 154 599 154 599 140.5 582.5 c 128,-1,73
 127 566 127 566 111 537 c 0,74,75
 97 511 97 511 70.5 497.5 c 128,-1,76
 44 484 44 484 31 484 c 0,77,78
 16 484 16 484 16 496 c 0,79,80
 16 502 16 502 25 520.5 c 128,-1,81
 34 539 34 539 61 570.5 c 128,-1,82
 88 602 88 602 125 627 c 0,83,84
 214 688 214 688 319 688 c 0,85,86
 391 688 391 688 391 627 c 0,87,88
 391 587 391 587 372 480 c 0,89,90
 359 418 359 418 338 340 c 1,0,-1
EndSplineSet
Validated: 3073
EndChar

StartChar: I
Encoding: 73 73 8
Width: 544
VWidth: 1000
Flags: W
HStem: -5 65<-3.56348 151.387 222 442.259> 623 65<181.508 375 446.066 615.391>
LayerCount: 2
Fore
SplineSet
355 688 m 2,0,-1
 612 688 l 2,1,2
 640 688 640 688 640 676 c 0,3,4
 640 658 640 658 605 639 c 0,5,6
 578 623 578 623 548 623 c 2,7,-1
 463 623 l 2,8,9
 448 623 448 623 446 622 c 128,-1,10
 444 621 444 621 440 615 c 0,11,12
 421 587 421 587 403.5 540.5 c 128,-1,13
 386 494 386 494 376 457 c 128,-1,14
 366 420 366 420 349 350 c 0,15,16
 321 236 321 236 294 169.5 c 128,-1,17
 267 103 267 103 222 60 c 1,18,-1
 400 60 l 2,19,20
 435 60 435 60 442.5 64 c 128,-1,21
 450 68 450 68 455 84 c 0,22,23
 463 103 463 103 490 119 c 128,-1,24
 517 135 517 135 534 135 c 0,25,26
 550 135 550 135 550 123 c 0,27,28
 550 87 550 87 486 41 c 128,-1,29
 422 -5 422 -5 341 -5 c 2,30,-1
 -1 -5 l 2,31,32
 -29 -5 -29 -5 -29 7 c 0,33,34
 -29 17 -29 17 -17 27.5 c 128,-1,35
 -5 38 -5 38 7 44 c 0,36,37
 33 60 33 60 64 60 c 2,38,-1
 128 60 l 2,39,40
 148 60 148 60 151.5 61 c 128,-1,41
 155 62 155 62 162 70 c 0,42,43
 190 106 190 106 210 162.5 c 128,-1,44
 230 219 230 219 254 317 c 0,45,46
 285 442 285 442 310 511 c 128,-1,47
 335 580 335 580 375 623 c 1,48,-1
 296 623 l 2,49,50
 246 623 246 623 196 617 c 0,51,52
 162 612 162 612 148 606.5 c 128,-1,53
 134 601 134 601 129.5 594 c 128,-1,54
 125 587 125 587 118 564 c 0,55,56
 112 546 112 546 84 530 c 128,-1,57
 56 514 56 514 39 514 c 0,58,59
 23 514 23 514 23 527 c 0,60,61
 23 535 23 535 29 548.5 c 128,-1,62
 35 562 35 562 48 580.5 c 128,-1,63
 61 599 61 599 88 619.5 c 128,-1,64
 115 640 115 640 151 656 c 0,65,66
 237 688 237 688 355 688 c 2,0,-1
EndSplineSet
Validated: 3073
EndChar

StartChar: J
Encoding: 74 74 9
Width: 677
VWidth: 1000
Flags: W
HStem: -124 65<198.794 321.953> 623 65<496.438 675 721.188 821.204>
VStem: 42 95<-0.390381 100.5>
LayerCount: 2
Fore
SplineSet
615 688 m 2,0,-1
 817 688 l 2,1,2
 845 688 845 688 845 676 c 0,3,4
 845 662 845 662 819 643.5 c 128,-1,5
 793 625 793 625 761 623 c 0,6,7
 745 622 745 622 739.5 618.5 c 128,-1,8
 734 615 734 615 722 602 c 0,9,10
 696 573 696 573 672 526.5 c 128,-1,11
 648 480 648 480 627.5 417.5 c 128,-1,12
 607 355 607 355 594 309 c 128,-1,13
 581 263 581 263 563 193 c 0,14,15
 554 157 554 157 547.5 137 c 128,-1,16
 541 117 541 117 527 85 c 128,-1,17
 513 53 513 53 489.5 24.5 c 128,-1,18
 466 -4 466 -4 433 -33 c 0,19,20
 389 -71 389 -71 331.5 -97.5 c 128,-1,21
 274 -124 274 -124 215 -124 c 0,22,23
 139 -124 139 -124 90.5 -81 c 128,-1,24
 42 -38 42 -38 42 33 c 0,25,26
 42 84 42 84 67 103 c 0,27,28
 103 130 103 130 127 130 c 0,29,30
 142 130 142 130 142 116 c 0,31,32
 142 115 142 115 139.5 100.5 c 128,-1,33
 137 86 137 86 137 75 c 0,34,35
 137 14 137 14 179.5 -22.5 c 128,-1,36
 222 -59 222 -59 281 -59 c 0,37,38
 349 -59 349 -59 395.5 -3.5 c 128,-1,39
 442 52 442 52 462 130 c 0,40,41
 516 344 516 344 559.5 452 c 128,-1,42
 603 560 603 560 675 623 c 1,43,-1
 556 623 l 2,44,45
 403 623 403 623 358 477 c 0,46,47
 353 461 353 461 325.5 444.5 c 128,-1,48
 298 428 298 428 279 428 c 0,49,50
 264 428 264 428 264 440 c 0,51,52
 264 443 264 443 266 451.5 c 128,-1,53
 268 460 268 460 276 478 c 128,-1,54
 284 496 284 496 296 515.5 c 128,-1,55
 308 535 308 535 332 560.5 c 128,-1,56
 356 586 356 586 387 608 c 0,57,58
 499 688 499 688 615 688 c 2,0,-1
EndSplineSet
Validated: 3073
EndChar

StartChar: K
Encoding: 75 75 10
Width: 761
VWidth: 1000
Flags: W
HStem: -27 53<491.25 605.652> 657 53<587.579 689.5>
VStem: 121 166<620 689> 668 70<84.3467 133.688 600.25 650.926>
LayerCount: 2
Fore
SplineSet
682 128 m 0,0,1
 698 141 698 141 715 141 c 128,-1,2
 732 141 732 141 732 127 c 0,3,4
 732 102 732 102 701 64 c 0,5,6
 671 26 671 26 614.5 -0.5 c 128,-1,7
 558 -27 558 -27 500 -27 c 0,8,9
 477 -27 477 -27 457.5 -16 c 128,-1,10
 438 -5 438 -5 410 21 c 0,11,12
 356 78 356 78 296 206 c 0,13,14
 244 319 244 319 237 383 c 1,15,16
 232 363 232 363 226 343 c 0,17,18
 185 197 185 197 152.5 109.5 c 128,-1,19
 120 22 120 22 114 13 c 0,20,21
 101 -2 101 -2 78 -14.5 c 128,-1,22
 55 -27 55 -27 40 -27 c 128,-1,23
 25 -27 25 -27 25 -15 c 0,24,25
 25 -11 25 -11 30 2 c 0,26,27
 176 387 176 387 191 630 c 1,28,29
 149 609 149 609 137 609 c 0,30,31
 121 609 121 609 121 620 c 0,32,33
 121 630 121 630 133 641 c 128,-1,34
 145 652 145 652 158 659 c 128,-1,35
 171 666 171 666 197 679 c 0,36,37
 204 683 204 683 208 684 c 0,38,39
 259 710 259 710 271 710 c 0,40,41
 287 710 287 710 287 689 c 0,42,43
 287 660 287 660 280 603 c 0,44,45
 272 533 272 533 254 452 c 1,46,47
 268 474 268 474 292 496 c 0,48,49
 319 521 319 521 336 534.5 c 128,-1,50
 353 548 353 548 379 567 c 0,51,52
 384 571 384 571 387 573 c 0,53,54
 459 624 459 624 543 667 c 128,-1,55
 627 710 627 710 675 710 c 0,56,57
 704 710 704 710 721 691.5 c 128,-1,58
 738 673 738 673 738 645 c 0,59,60
 738 621 738 621 723.5 607 c 128,-1,61
 709 593 709 593 699 590.5 c 128,-1,62
 689 588 689 588 683 588 c 0,63,64
 666 588 666 588 666 604 c 0,65,66
 666 607 666 607 667 612 c 128,-1,67
 668 617 668 617 668 620 c 0,68,69
 668 637 668 637 659.5 647 c 128,-1,70
 651 657 651 657 637 657 c 0,71,72
 603 657 603 657 499.5 596.5 c 128,-1,73
 396 536 396 536 343 483 c 0,74,75
 319 458 319 458 312.5 447.5 c 128,-1,76
 306 437 306 437 306 425 c 0,77,78
 306 379 306 379 344.5 284 c 128,-1,79
 383 189 383 189 440 107.5 c 128,-1,80
 497 26 497 26 539 26 c 0,81,82
 543 26 543 26 550.5 26.5 c 128,-1,83
 558 27 558 27 575.5 31 c 128,-1,84
 593 35 593 35 608 42 c 128,-1,85
 623 49 623 49 638.5 63.5 c 128,-1,86
 654 78 654 78 661 99 c 0,87,88
 667 118 667 118 682 128 c 0,0,1
EndSplineSet
Validated: 3073
EndChar

StartChar: L
Encoding: 76 76 11
Width: 689
VWidth: 1000
Flags: W
HStem: -27 72<392.009 526.295> 30 72<112.501 120.263 190.438 257.609> 638 72<434.625 535>
VStem: 517 107<546.435 623.538>
LayerCount: 2
Fore
SplineSet
94 -5 m 0,0,1
 61 -27 61 -27 40 -27 c 0,2,3
 26 -27 26 -27 26 -16 c 0,4,5
 26 0 26 0 65 36 c 0,6,7
 79 49 79 49 111 104 c 0,8,9
 114 104 114 104 137 170 c 0,10,11
 160 238 160 238 166 262 c 0,12,13
 230 516 230 516 313 602 c 0,14,15
 348 637 348 637 384 660.5 c 128,-1,16
 420 684 420 684 450 693.5 c 128,-1,17
 480 703 480 703 499 706.5 c 128,-1,18
 518 710 518 710 535 710 c 0,19,20
 578 710 578 710 601 682 c 128,-1,21
 624 654 624 654 624 610 c 0,22,23
 624 581 624 581 617.5 567 c 128,-1,24
 611 553 611 553 595 541 c 0,25,26
 553 511 553 511 524 511 c 0,27,28
 512 511 512 511 512 523 c 0,29,30
 512 525 512 525 514.5 537.5 c 128,-1,31
 517 550 517 550 517 560 c 0,32,33
 517 569 517 569 515.5 578.5 c 128,-1,34
 514 588 514 588 508.5 603.5 c 128,-1,35
 503 619 503 619 488 628.5 c 128,-1,36
 473 638 473 638 451 638 c 0,37,38
 436 638 436 638 427 635 c 128,-1,39
 418 632 418 632 414 629 c 128,-1,40
 410 626 410 626 403 618 c 0,41,42
 361 571 361 571 330 491 c 128,-1,43
 299 411 299 411 269 293 c 0,44,45
 242 184 242 184 190 100 c 1,46,47
 204 102 204 102 220 102 c 0,48,49
 270 102 270 102 354 78 c 0,50,51
 358 77 358 77 375.5 72 c 128,-1,52
 393 67 393 67 397 66 c 128,-1,53
 401 65 401 65 415 61.5 c 128,-1,54
 429 58 429 58 434 57 c 128,-1,55
 439 56 439 56 451 53 c 128,-1,56
 463 50 463 50 469 49.5 c 128,-1,57
 475 49 475 49 484.5 47.5 c 128,-1,58
 494 46 494 46 501.5 45.5 c 128,-1,59
 509 45 509 45 517 45 c 0,60,61
 519 45 519 45 522 45 c 0,62,63
 528 45 528 45 529.5 46 c 128,-1,64
 531 47 531 47 535 52 c 0,65,66
 536 54 536 54 537 55 c 0,67,68
 547 70 547 70 551 84 c 0,69,70
 556 99 556 99 562.5 106.5 c 128,-1,71
 569 114 569 114 588 126 c 0,72,73
 622 150 622 150 648 150 c 0,74,75
 660 150 660 150 660 138 c 0,76,77
 660 132 660 132 653 115 c 128,-1,78
 646 98 646 98 633 80 c 0,79,80
 604 41 604 41 547.5 7 c 128,-1,81
 491 -27 491 -27 434 -27 c 0,82,83
 386 -27 386 -27 280 2 c 0,84,85
 188 28 188 28 135 30 c 1,86,87
 118 12 118 12 112.5 7.5 c 128,-1,88
 107 3 107 3 94 -5 c 0,0,1
EndSplineSet
Validated: 3073
EndChar

StartChar: M
Encoding: 77 77 12
Width: 1200
VWidth: 1000
Flags: W
HStem: -55 102<81.2485 156.766>
VStem: 942 95<40.7374 334.452>
LayerCount: 2
Fore
SplineSet
75 74 m 0,0,1
 89 62 89 62 110.5 54.5 c 128,-1,2
 132 47 132 47 144 47 c 0,3,4
 151 47 151 47 154.5 48 c 128,-1,5
 158 49 158 49 168 59.5 c 128,-1,6
 178 70 178 70 189 90.5 c 128,-1,7
 200 111 200 111 218.5 153.5 c 128,-1,8
 237 196 237 196 260 257 c 0,9,10
 332 453 332 453 362 663 c 0,11,12
 365 681 365 681 389 695.5 c 128,-1,13
 413 710 413 710 430 710 c 0,14,15
 441 710 441 710 445 703 c 2,16,-1
 446 701 l 1,17,-1
 446 700 l 2,18,19
 447 690 447 690 454 658 c 0,20,21
 480 508 480 508 517 365 c 0,22,23
 540 273 540 273 555 229.5 c 128,-1,24
 570 186 570 186 592 141 c 1,25,26
 639 182 639 182 744 300.5 c 128,-1,27
 849 419 849 419 926 510 c 128,-1,28
 1003 601 1003 601 1071 684 c 0,29,30
 1073 686 1073 686 1076 690 c 0,31,32
 1087 703 1087 703 1090.5 706 c 128,-1,33
 1094 709 1094 709 1099 709 c 0,34,35
 1112 709 1112 709 1112 689 c 0,36,37
 1112 686 1112 686 1110 671 c 0,38,39
 1087 574 1087 574 1062 393.5 c 128,-1,40
 1037 213 1037 213 1037 134 c 0,41,42
 1037 100 1037 100 1040 68 c 0,43,44
 1042 48 1042 48 1045.5 40.5 c 128,-1,45
 1049 33 1049 33 1062 31 c 1,46,47
 1088 47 1088 47 1107 47 c 0,48,49
 1121 47 1121 47 1121 35 c 0,50,51
 1121 16 1121 16 1076 -9 c 128,-1,52
 1031 -34 1031 -34 998 -34 c 0,53,54
 950 -34 950 -34 946 10 c 0,55,56
 942 46 942 46 942 91 c 0,57,58
 942 211 942 211 989 501 c 1,59,-1
 782 260 l 2,60,61
 668 129 668 129 583 48 c 0,62,63
 564 29 564 29 556 29 c 0,64,65
 553 29 553 29 551 30 c 128,-1,66
 549 31 549 31 546.5 33 c 128,-1,67
 544 35 544 35 541.5 37 c 128,-1,68
 539 39 539 39 536.5 43.5 c 128,-1,69
 534 48 534 48 532 51.5 c 128,-1,70
 530 55 530 55 527 61 c 128,-1,71
 524 67 524 67 521.5 71.5 c 128,-1,72
 519 76 519 76 515 83.5 c 128,-1,73
 511 91 511 91 509 97 c 0,74,75
 453 211 453 211 385 534 c 1,76,77
 346 353 346 353 259 142 c 1,78,79
 182 -55 182 -55 113 -55 c 0,80,81
 85 -55 85 -55 57 -40 c 0,82,83
 22 -22 22 -22 22 2 c 0,84,85
 22 25 22 25 35.5 52.5 c 128,-1,86
 49 80 49 80 63 80 c 0,87,88
 69 80 69 80 75 74 c 0,0,1
EndSplineSet
Validated: 3073
EndChar

StartChar: N
Encoding: 78 78 13
Width: 820
VWidth: 1000
Flags: W
HStem: -55 102<25.6968 107.447> 678 102<847.003 965.815>
VStem: 275 89<613.932 684.654>
LayerCount: 2
Fore
SplineSet
307 554 m 1,0,1
 267 335 267 335 196 135 c 0,2,3
 130 -55 130 -55 60 -55 c 0,4,5
 33 -55 33 -55 -0.5 -39.5 c 128,-1,6
 -34 -24 -34 -24 -34 1 c 0,7,8
 -34 22 -34 22 -20.5 51 c 128,-1,9
 -7 80 -7 80 8 80 c 0,10,11
 13 80 13 80 19 75 c 0,12,13
 35 60 35 60 57 53.5 c 128,-1,14
 79 47 79 47 91 47 c 0,15,16
 110 47 110 47 127 77 c 0,17,18
 156 129 156 129 206.5 303.5 c 128,-1,19
 257 478 257 478 275 652 c 0,20,21
 277 674 277 674 289 685 c 0,22,23
 319 710 319 710 343 710 c 0,24,25
 352 710 352 710 355.5 705 c 128,-1,26
 359 700 359 700 364 685 c 0,27,28
 419 502 419 502 476 350 c 0,29,30
 515 244 515 244 541.5 184 c 128,-1,31
 568 124 568 124 603 69 c 1,32,33
 658 296 658 296 698 445 c 0,34,35
 734 576 734 576 755 636 c 128,-1,36
 776 696 776 696 797 723 c 0,37,38
 807 734 807 734 821.5 744.5 c 128,-1,39
 836 755 836 755 874 767.5 c 128,-1,40
 912 780 912 780 958 780 c 0,41,42
 983 780 983 780 983 759 c 128,-1,43
 983 738 983 738 970 708.5 c 128,-1,44
 957 679 957 679 939 678 c 0,45,46
 905 677 905 677 878.5 673 c 128,-1,47
 852 669 852 669 838 664 c 128,-1,48
 824 659 824 659 814.5 652.5 c 128,-1,49
 805 646 805 646 802.5 643.5 c 128,-1,50
 800 641 800 641 800 639 c 0,51,52
 784 602 784 602 735 422 c 128,-1,53
 686 242 686 242 644 57 c 0,54,55
 636 21 636 21 632 11.5 c 128,-1,56
 628 2 628 2 616 -9 c 0,57,58
 605 -17 605 -17 591.5 -23.5 c 128,-1,59
 578 -30 578 -30 567 -30 c 0,60,61
 559 -30 559 -30 554 -26 c 128,-1,62
 549 -22 549 -22 539 -6 c 0,63,64
 494 65 494 65 464 129 c 128,-1,65
 434 193 434 193 386 322 c 0,66,67
 367 373 367 373 307 554 c 1,0,1
EndSplineSet
Validated: 3073
EndChar

StartChar: O
Encoding: 79 79 14
Width: 796
VWidth: 1000
Flags: W
HStem: -27 65<262.847 421.755> 645 65<503.011 610.153>
VStem: 52 95<167.461 384.372> 687 95<336.528 556.812>
LayerCount: 2
Fore
SplineSet
782 482 m 0,0,1
 782 392 782 392 750.5 310 c 128,-1,2
 719 228 719 228 667.5 168 c 128,-1,3
 616 108 616 108 552.5 63 c 128,-1,4
 489 18 489 18 422.5 -4.5 c 128,-1,5
 356 -27 356 -27 296 -27 c 0,6,7
 176 -27 176 -27 114 52 c 128,-1,8
 52 131 52 131 52 246 c 0,9,10
 52 331 52 331 83 409.5 c 128,-1,11
 114 488 114 488 159 540.5 c 128,-1,12
 204 593 204 593 253 633 c 128,-1,13
 302 673 302 673 338 691.5 c 128,-1,14
 374 710 374 710 388 710 c 0,15,16
 403 710 403 710 403 698 c 0,17,18
 403 682 403 682 361 657 c 0,19,20
 257 596 257 596 202 495.5 c 128,-1,21
 147 395 147 395 147 289 c 0,22,23
 147 179 147 179 204 108.5 c 128,-1,24
 261 38 261 38 362 38 c 0,25,26
 450 38 450 38 525.5 96 c 128,-1,27
 601 154 601 154 644 246 c 128,-1,28
 687 338 687 338 687 439 c 0,29,30
 687 535 687 535 645.5 590 c 128,-1,31
 604 645 604 645 533 645 c 0,32,33
 506 645 506 645 489 635.5 c 128,-1,34
 472 626 472 626 453 605 c 0,35,36
 415 561 415 561 385 495 c 0,37,38
 376 477 376 477 371 470 c 128,-1,39
 366 463 366 463 353 454 c 0,40,41
 323 432 323 432 300 432 c 0,42,43
 285 432 285 432 285 444 c 0,44,45
 285 449 285 449 295 473 c 128,-1,46
 305 497 305 497 332.5 540 c 128,-1,47
 360 583 360 583 396 619 c 2,48,-1
 397 619 l 1,49,50
 504 710 504 710 599 710 c 0,51,52
 689 710 689 710 735.5 647 c 128,-1,53
 782 584 782 584 782 482 c 0,0,1
EndSplineSet
Validated: 3073
EndChar

StartChar: P
Encoding: 80 80 15
Width: 695
VWidth: 1000
Flags: W
HStem: 200 63.5<313.996 447.039> 623 65<207.424 271 358.661 541.477>
VStem: 643 95<433.313 547.677>
LayerCount: 2
Fore
SplineSet
348 688 m 2,0,-1
 482 688 l 2,1,2
 545 688 545 688 600.5 672.5 c 128,-1,3
 656 657 656 657 697 618.5 c 128,-1,4
 738 580 738 580 738 524 c 0,5,6
 738 443 738 443 670.5 366.5 c 128,-1,7
 603 290 603 290 505 245 c 128,-1,8
 407 200 407 200 315 200 c 0,9,10
 291 200 291 200 291 212 c 0,11,12
 291 226 291 226 319 245 c 0,13,14
 333 254 333 254 344 258.5 c 128,-1,15
 355 263 355 263 361.5 263.5 c 128,-1,16
 368 264 368 264 382 265 c 0,17,18
 437 267 437 267 482.5 283 c 128,-1,19
 528 299 528 299 557 322.5 c 128,-1,20
 586 346 586 346 606 375.5 c 128,-1,21
 626 405 626 405 634.5 431.5 c 128,-1,22
 643 458 643 458 643 481 c 0,23,24
 643 549 643 549 575 586 c 128,-1,25
 507 623 507 623 409 623 c 2,26,-1
 361 623 l 1,27,28
 325 296 325 296 198 -4 c 0,29,30
 190 -24 190 -24 162 -39.5 c 128,-1,31
 134 -55 134 -55 118 -55 c 0,32,33
 103 -55 103 -55 103 -43 c 0,34,35
 103 -39 103 -39 109 -23 c 0,36,37
 244 314 244 314 271 623 c 1,38,39
 214 620 214 620 179 607.5 c 128,-1,40
 144 595 144 595 132 581 c 128,-1,41
 120 567 120 567 113 545 c 0,42,43
 108 530 108 530 102 522 c 128,-1,44
 96 514 96 514 81 504 c 0,45,46
 49 484 49 484 31 484 c 0,47,48
 16 484 16 484 16 497 c 0,49,50
 16 501 16 501 18 509 c 128,-1,51
 20 517 20 517 29.5 535 c 128,-1,52
 39 553 39 553 55 571 c 0,53,54
 93 615 93 615 172 651.5 c 128,-1,55
 251 688 251 688 348 688 c 2,0,-1
EndSplineSet
Validated: 3073
EndChar

StartChar: Q
Encoding: 81 81 16
Width: 816
VWidth: 1000
Flags: W
HStem: -129 65<514.294 672.597> -32 65<155.205 276.765> 97 65<273.919 402.733> 645 65<429.011 580.049>
VStem: 108 95<236.535 403.166> 685 95<327.006 529.899>
LayerCount: 2
Fore
SplineSet
146 -32 m 0,0,1
 131 -32 131 -32 131 -20 c 0,2,3
 131 -4 131 -4 165 17 c 0,4,5
 191 33 191 33 223 33 c 2,6,-1
 252 33 l 2,7,8
 368 33 368 33 433 55 c 128,-1,9
 498 77 498 77 551 125 c 0,10,11
 618 184 618 184 651.5 261.5 c 128,-1,12
 685 339 685 339 685 417 c 0,13,14
 685 517 685 517 631.5 581 c 128,-1,15
 578 645 578 645 488 645 c 0,16,17
 407 645 407 645 339 591 c 128,-1,18
 271 537 271 537 237 465.5 c 128,-1,19
 203 394 203 394 203 330 c 0,20,21
 203 255 203 255 245 208.5 c 128,-1,22
 287 162 287 162 353 162 c 0,23,24
 402 162 402 162 444 185 c 0,25,26
 479 203 479 203 491 203 c 0,27,28
 507 203 507 203 507 192 c 0,29,30
 507 167 507 167 432.5 132 c 128,-1,31
 358 97 358 97 287 97 c 0,32,33
 204 97 204 97 156 150.5 c 128,-1,34
 108 204 108 204 108 288 c 0,35,36
 108 390 108 390 176 489.5 c 128,-1,37
 244 589 244 589 348 649.5 c 128,-1,38
 452 710 452 710 554 710 c 0,39,40
 662 710 662 710 721 639 c 128,-1,41
 780 568 780 568 780 459 c 0,42,43
 780 390 780 390 757 325 c 128,-1,44
 734 260 734 260 696 209 c 128,-1,45
 658 158 658 158 608 114.5 c 128,-1,46
 558 71 558 71 505.5 42 c 128,-1,47
 453 13 453 13 400 -4 c 1,48,49
 511 -42 511 -42 553 -53 c 128,-1,50
 595 -64 595 -64 639 -64 c 0,51,52
 655 -64 655 -64 663.5 -62 c 128,-1,53
 672 -60 672 -60 681 -51 c 128,-1,54
 690 -42 690 -42 696 -24 c 0,55,56
 699 -16 699 -16 701.5 -11.5 c 128,-1,57
 704 -7 704 -7 710.5 -0.5 c 128,-1,58
 717 6 717 6 728 13 c 0,59,60
 757 33 757 33 778 33 c 0,61,62
 792 33 792 33 792 20 c 0,63,64
 792 -20 792 -20 723.5 -74.5 c 128,-1,65
 655 -129 655 -129 573 -129 c 0,66,67
 536 -129 536 -129 494 -120.5 c 128,-1,68
 452 -112 452 -112 424.5 -103.5 c 128,-1,69
 397 -95 397 -95 352 -79 c 0,70,71
 278 -53 278 -53 237 -43.5 c 128,-1,72
 196 -34 196 -34 146 -32 c 0,0,1
EndSplineSet
Validated: 3073
EndChar

StartChar: R
Encoding: 82 82 17
Width: 847
VWidth: 1000
Flags: W
HStem: -27 65<579 695.925> 269 64<369.291 398.479> 623 65<361.088 578.247>
VStem: 642 95<468.724 572.969>
LayerCount: 2
Fore
SplineSet
405 623 m 2,0,-1
 363 623 l 1,1,2
 334 337 334 337 203 19 c 0,3,-1
 202 18 l 2,4,5
 193 2 193 2 167.5 -12.5 c 128,-1,6
 142 -27 142 -27 125 -27 c 0,7,8
 110 -27 110 -27 110 -15 c 0,9,10
 110 -11 110 -11 115 1 c 0,11,12
 184 169 184 169 223 329 c 0,13,14
 259 482 259 482 271 623 c 1,15,16
 214 620 214 620 179 607.5 c 128,-1,17
 144 595 144 595 132 581 c 128,-1,18
 120 567 120 567 113 545 c 0,19,20
 108 530 108 530 102 522 c 128,-1,21
 96 514 96 514 81 504 c 0,22,23
 49 484 49 484 31 484 c 0,24,25
 16 484 16 484 16 497 c 0,26,27
 16 502 16 502 19 511.5 c 128,-1,28
 22 521 22 521 32 539 c 128,-1,29
 42 557 42 557 57.5 574.5 c 128,-1,30
 73 592 73 592 103 613.5 c 128,-1,31
 133 635 133 635 171 652 c 0,32,33
 212 669 212 669 252.5 677 c 128,-1,34
 293 685 293 685 322 686.5 c 128,-1,35
 351 688 351 688 413 688 c 0,36,37
 445 688 445 688 459 688 c 128,-1,38
 473 688 473 688 503.5 687 c 128,-1,39
 534 686 534 686 549 684.5 c 128,-1,40
 564 683 564 683 590.5 680 c 128,-1,41
 617 677 617 677 631 672 c 128,-1,42
 645 667 645 667 665 660.5 c 128,-1,43
 685 654 685 654 695.5 644 c 128,-1,44
 706 634 706 634 717 622 c 128,-1,45
 728 610 728 610 732.5 593.5 c 128,-1,46
 737 577 737 577 737 558 c 0,47,48
 737 479 737 479 671 407 c 128,-1,49
 605 335 605 335 497 294 c 1,50,51
 523 261 523 261 556 184 c 0,52,53
 572 147 572 147 582 126.5 c 128,-1,54
 592 106 592 106 606.5 82.5 c 128,-1,55
 621 59 621 59 635.5 48.5 c 128,-1,56
 650 38 650 38 667 38 c 0,57,58
 689 38 689 38 706 47 c 128,-1,59
 723 56 723 56 731 65 c 128,-1,60
 739 74 739 74 750 90 c 0,61,62
 765 111 765 111 788.5 123 c 128,-1,63
 812 135 812 135 826 135 c 0,64,65
 842 135 842 135 842 123 c 0,66,67
 842 108 842 108 808.5 73 c 128,-1,68
 775 38 775 38 716 5.5 c 128,-1,69
 657 -27 657 -27 601 -27 c 0,70,71
 557 -27 557 -27 530.5 6.5 c 128,-1,72
 504 40 504 40 465 127 c 0,73,74
 427 212 427 212 406.5 238 c 128,-1,75
 386 264 386 264 356 269 c 0,76,77
 346 269 346 269 346 280 c 0,78,79
 346 294 346 294 372.5 313 c 128,-1,80
 399 332 399 332 434 333 c 0,81,82
 480 335 480 335 517.5 349 c 128,-1,83
 555 363 555 363 577.5 382.5 c 128,-1,84
 600 402 600 402 615 427 c 128,-1,85
 630 452 630 452 636 474 c 128,-1,86
 642 496 642 496 642 515 c 0,87,88
 642 567 642 567 590.5 595 c 128,-1,89
 539 623 539 623 405 623 c 2,0,-1
EndSplineSet
Validated: 3073
EndChar

StartChar: S
Encoding: 83 83 18
Width: 605
VWidth: 1000
Flags: W
HStem: -27 65<189.864 355.173> 645 65<365.937 515.159>
VStem: 13 95<107.788 202.884> 186 95<473.127 566.957> 483 95<145.052 250.037> 552 95<545.119 614.697>
LayerCount: 2
Fore
SplineSet
548 537 m 0,0,1
 552 551 552 551 552 566 c 0,2,3
 552 585 552 585 544.5 597.5 c 128,-1,4
 537 610 537 610 530 614.5 c 128,-1,5
 523 619 523 619 510 625 c 0,6,7
 466 645 466 645 416 645 c 0,8,9
 405 645 405 645 390.5 643.5 c 128,-1,10
 376 642 376 642 354 635 c 128,-1,11
 332 628 332 628 319 617 c 0,12,13
 299 600 299 600 290 576.5 c 128,-1,14
 281 553 281 553 281 534 c 0,15,16
 281 460 281 460 394 409 c 0,17,18
 426 395 426 395 444.5 385.5 c 128,-1,19
 463 376 463 376 492.5 358 c 128,-1,20
 522 340 522 340 537.5 323 c 128,-1,21
 553 306 553 306 565.5 280.5 c 128,-1,22
 578 255 578 255 578 227 c 0,23,24
 578 160 578 160 523 100 c 128,-1,25
 468 40 468 40 385.5 6.5 c 128,-1,26
 303 -27 303 -27 221 -27 c 0,27,28
 131 -27 131 -27 72 19 c 128,-1,29
 13 65 13 65 13 124 c 0,30,31
 13 192 13 192 62 232 c 128,-1,32
 111 272 111 272 150 272 c 0,33,34
 167 272 167 272 167 260 c 128,-1,35
 167 248 167 248 150.5 235 c 128,-1,36
 134 222 134 222 119 215 c 1,37,38
 108 189 108 189 108 167 c 0,39,40
 108 118 108 118 161 78 c 128,-1,41
 214 38 214 38 287 38 c 0,42,43
 389 38 389 38 436 82 c 128,-1,44
 483 126 483 126 483 184 c 0,45,46
 483 212 483 212 469 237 c 128,-1,47
 455 262 455 262 429 281.5 c 128,-1,48
 403 301 403 301 380 314 c 128,-1,49
 357 327 357 327 324 341 c 0,50,51
 304 350 304 350 290.5 356.5 c 128,-1,52
 277 363 277 363 255.5 377.5 c 128,-1,53
 234 392 234 392 220.5 406.5 c 128,-1,54
 207 421 207 421 196.5 443.5 c 128,-1,55
 186 466 186 466 186 491 c 0,56,57
 186 548 186 548 232.5 599.5 c 128,-1,58
 279 651 279 651 347.5 680.5 c 128,-1,59
 416 710 416 710 482 710 c 0,60,61
 543 710 543 710 591 688 c 0,62,63
 608 680 608 680 618.5 673 c 128,-1,64
 629 666 629 666 638 649 c 128,-1,65
 647 632 647 632 647 608 c 0,66,67
 647 562 647 562 621 542 c 0,68,69
 588 514 588 514 561 514 c 0,70,71
 546 514 546 514 546 526 c 0,72,73
 546 530 546 530 548 537 c 0,0,1
EndSplineSet
Validated: 3073
EndChar

StartChar: T
Encoding: 84 84 19
Width: 544
VWidth: 1000
Flags: W
HStem: 616 72<191.307 401 490 764.5>
VStem: 29 107<507.789 559.5>
LayerCount: 2
Fore
SplineSet
387 586 m 2,0,1
 391 605 391 605 401 616 c 1,2,-1
 216 616 l 2,3,4
 187 616 187 616 176.5 612 c 128,-1,5
 166 608 166 608 158 598 c 0,6,7
 138 572 138 572 136 539 c 0,8,9
 134 519 134 519 99 498 c 128,-1,10
 64 477 64 477 42 477 c 0,11,12
 29 477 29 477 29 494 c 0,13,14
 29 560 29 560 116.5 624 c 128,-1,15
 204 688 204 688 297 688 c 2,16,-1
 734 688 l 2,17,18
 749 688 749 688 752 688.5 c 128,-1,19
 755 689 755 689 760 693 c 0,20,21
 800 722 800 722 825 722 c 0,22,23
 839 722 839 722 839 710 c 0,24,25
 839 704 839 704 832.5 693.5 c 128,-1,26
 826 683 826 683 811 669.5 c 128,-1,27
 796 656 796 656 775.5 644 c 128,-1,28
 755 632 755 632 722.5 624 c 128,-1,29
 690 616 690 616 652 616 c 2,30,-1
 490 616 l 1,31,-1
 379 174 l 2,32,33
 354 76 354 76 311 -16 c 0,34,35
 309 -21 309 -21 307 -23 c 0,36,37
 295 -40 295 -40 265.5 -56.5 c 128,-1,38
 236 -73 236 -73 219 -73 c 0,39,40
 205 -73 205 -73 205 -61 c 0,41,42
 205 -56 205 -56 211 -43 c 0,43,44
 252 49 252 49 273 133 c 2,45,-1
 387 586 l 2,0,1
EndSplineSet
Validated: 3073
EndChar

StartChar: U
Encoding: 85 85 20
Width: 625
VWidth: 1000
Flags: W
HStem: -27 65<61.6418 172.957> 623 65<88.7274 210.5>
VStem: -22 95<64.1998 211.659> 143 95<541.945 661.5> 430 95<0 156.402>
LayerCount: 2
Fore
SplineSet
482 275 m 1,0,1
 407 175 407 175 338 110 c 0,2,3
 264 41 264 41 197.5 7 c 128,-1,4
 131 -27 131 -27 80 -27 c 0,5,6
 27 -27 27 -27 2.5 8 c 128,-1,7
 -22 43 -22 43 -22 98 c 0,8,9
 -22 142 -22 142 -3.5 200 c 128,-1,10
 15 258 15 258 65 372 c 0,11,12
 92 433 92 433 105.5 465 c 128,-1,13
 119 497 119 497 131 534.5 c 128,-1,14
 143 572 143 572 143 592 c 0,15,16
 143 623 143 623 117 623 c 0,17,18
 90 623 90 623 70 609 c 0,19,20
 41 589 41 589 21 589 c 0,21,22
 5 589 5 589 5 600 c 0,23,24
 5 622 5 622 66.5 655 c 128,-1,25
 128 688 128 688 183 688 c 128,-1,26
 238 688 238 688 238 635 c 0,27,28
 238 603 238 603 221.5 557.5 c 128,-1,29
 205 512 205 512 172 435 c 0,30,31
 118 312 118 312 95.5 249.5 c 128,-1,32
 73 187 73 187 73 140 c 0,33,34
 73 92 73 92 92.5 65 c 128,-1,35
 112 38 112 38 146 38 c 0,36,37
 165 38 165 38 190 51.5 c 128,-1,38
 215 65 215 65 234 79 c 128,-1,39
 253 93 253 93 280 120.5 c 128,-1,40
 307 148 307 148 315 157 c 128,-1,41
 323 166 323 166 342 187 c 0,42,43
 414 272 414 272 480.5 381 c 128,-1,44
 547 490 547 490 572 562 c 0,45,46
 583 596 583 596 599 639 c 0,47,48
 606 655 606 655 633 671.5 c 128,-1,49
 660 688 660 688 678 688 c 0,50,51
 693 688 693 688 693 676 c 0,52,53
 693 656 693 656 668 597 c 0,54,55
 634 510 634 510 579.5 320.5 c 128,-1,56
 525 131 525 131 525 53 c 0,57,58
 525 36 525 36 539 32 c 1,59,60
 567 47 567 47 581 47 c 0,61,62
 596 47 596 47 596 35 c 0,63,64
 596 16 596 16 551.5 -8.5 c 128,-1,65
 507 -33 507 -33 476 -33 c 0,66,67
 456 -33 456 -33 443 -22 c 128,-1,68
 430 -11 430 -11 430 11 c 0,69,70
 430 85 430 85 482 275 c 1,0,1
EndSplineSet
Validated: 3073
EndChar

StartChar: V
Encoding: 86 86 21
Width: 612
VWidth: 1000
Flags: W
HStem: 586 102<531.663 587.786> 628 60<44.2402 113.326>
VStem: 206 84<100.967 486.642> 611 54<458.769 597>
LayerCount: 2
Fore
SplineSet
276 97 m 1,0,1
 404 199 404 199 507.5 324.5 c 128,-1,2
 611 450 611 450 611 506 c 0,3,4
 611 516 611 516 608 527 c 128,-1,5
 605 538 605 538 598 551 c 128,-1,6
 591 564 591 564 575 573.5 c 128,-1,7
 559 583 559 583 536 586 c 0,8,9
 525 587 525 587 520 591 c 128,-1,10
 515 595 515 595 515 607 c 0,11,12
 515 626 515 626 527.5 657 c 128,-1,13
 540 688 540 688 563 688 c 0,14,15
 602 688 602 688 633.5 657.5 c 128,-1,16
 665 627 665 627 665 567 c 0,17,18
 665 468 665 468 575 330 c 0,19,20
 539 275 539 275 488 216.5 c 128,-1,21
 437 158 437 158 389 112 c 128,-1,22
 341 66 341 66 297 28.5 c 128,-1,23
 253 -9 253 -9 224.5 -29.5 c 128,-1,24
 196 -50 196 -50 191 -50 c 0,25,26
 179 -50 179 -50 179 -28 c 0,27,28
 179 -22 179 -22 181 -9 c 0,29,30
 206 130 206 130 206 278 c 0,31,32
 206 312 206 312 204 343.5 c 128,-1,33
 202 375 202 375 197.5 416.5 c 128,-1,34
 193 458 193 458 182 492 c 128,-1,35
 171 526 171 526 155 557 c 128,-1,36
 139 588 139 588 112.5 606.5 c 128,-1,37
 86 625 86 625 53 628 c 0,38,39
 52 628 52 628 50 628 c 0,40,41
 43 628 43 628 39.5 629 c 128,-1,42
 36 630 36 630 32.5 633 c 128,-1,43
 29 636 29 636 29 641 c 0,44,45
 29 656 29 656 53 672 c 128,-1,46
 77 688 77 688 103 688 c 0,47,48
 142 688 142 688 173 670 c 128,-1,49
 204 652 204 652 223 626.5 c 128,-1,50
 242 601 242 601 256 561.5 c 128,-1,51
 270 522 270 522 276 491 c 128,-1,52
 282 460 282 460 285.5 417.5 c 128,-1,53
 289 375 289 375 289.5 357.5 c 128,-1,54
 290 340 290 340 290 314 c 0,55,56
 290 215 290 215 276 97 c 1,0,1
EndSplineSet
Validated: 3073
EndChar

StartChar: W
Encoding: 87 87 22
Width: 987
VWidth: 1000
Flags: W
HStem: 586 102<931.638 973> 628 60<44.3125 108.274>
VStem: 184 84<147.426 519.222> 663 81<104.096 257.891> 987 54<463.045 605>
LayerCount: 2
Fore
SplineSet
249 145 m 1,0,1
 322 238 322 238 387 337.5 c 128,-1,2
 452 437 452 437 482 490 c 128,-1,3
 512 543 512 543 553 622 c 1,4,5
 548 635 548 635 548 640 c 0,6,7
 548 656 548 656 573 672 c 128,-1,8
 598 688 598 688 615 688 c 0,9,10
 628 688 628 688 634 674 c 0,11,12
 670 577 670 577 703 421.5 c 128,-1,13
 736 266 736 266 744 118 c 0,14,15
 744 107 744 107 745 104 c 1,16,17
 774 137 774 137 826.5 209 c 128,-1,18
 879 281 879 281 933 376 c 128,-1,19
 987 471 987 471 987 516 c 0,20,21
 987 578 987 578 931 586 c 0,22,23
 915 588 915 588 915 607 c 128,-1,24
 915 626 915 626 927.5 657 c 128,-1,25
 940 688 940 688 962 688 c 0,26,27
 992 688 992 688 1016.5 660.5 c 128,-1,28
 1041 633 1041 633 1041 577 c 0,29,30
 1041 515 1041 515 1006.5 429.5 c 128,-1,31
 972 344 972 344 917 258.5 c 128,-1,32
 862 173 862 173 808 101 c 128,-1,33
 754 29 754 29 702 -29 c 0,34,35
 690 -43 690 -43 685.5 -46.5 c 128,-1,36
 681 -50 681 -50 676 -50 c 0,37,38
 666 -50 666 -50 665 -37 c 0,39,40
 663 -28 663 -28 663 16 c 0,41,42
 662 89 662 89 651 182 c 0,43,44
 627 387 627 387 572 564 c 1,45,46
 537 498 537 498 508 447 c 0,47,48
 363 194 363 194 177 -28 c 0,49,50
 165 -43 165 -43 160.5 -46.5 c 128,-1,51
 156 -50 156 -50 151 -50 c 0,52,53
 139 -50 139 -50 139 -29 c 0,54,55
 139 -20 139 -20 143 -2 c 0,56,57
 153 36 153 36 168.5 142.5 c 128,-1,58
 184 249 184 249 184 345 c 0,59,60
 184 454 184 454 160 525 c 0,61,62
 142 580 142 580 114.5 602.5 c 128,-1,63
 87 625 87 625 52 628 c 0,64,65
 51 628 51 628 49 628 c 0,66,67
 29 629 29 629 29 641 c 0,68,69
 29 656 29 656 53 672 c 128,-1,70
 77 688 77 688 103 688 c 0,71,72
 188 688 188 688 234 595 c 0,73,74
 268 522 268 522 268 380 c 0,75,76
 268 274 268 274 249 145 c 1,0,1
EndSplineSet
Validated: 3073
EndChar

StartChar: X
Encoding: 88 88 23
Width: 713
VWidth: 1000
Flags: W
HStem: -5 65<543.15 609.391> 623 65<301.281 366.725>
VStem: 45 95<42.5 118.366> 718 95<565.825 640.5>
LayerCount: 2
Fore
SplineSet
484 552 m 2,0,-1
 498 406 l 1,1,2
 595 465 595 465 632 490 c 0,3,4
 673 518 673 518 692 536 c 128,-1,5
 711 554 711 554 714.5 562 c 128,-1,6
 718 570 718 570 718 584 c 0,7,8
 718 619 718 619 691 623 c 0,9,10
 679 624 679 624 679 635 c 0,11,12
 679 650 679 650 708 669 c 128,-1,13
 737 688 737 688 761 688 c 128,-1,14
 785 688 785 688 799 671 c 128,-1,15
 813 654 813 654 813 627 c 0,16,17
 813 610 813 610 810.5 599.5 c 128,-1,18
 808 589 808 589 792 567.5 c 128,-1,19
 776 546 776 546 744.5 521 c 128,-1,20
 713 496 713 496 652.5 455.5 c 128,-1,21
 592 415 592 415 502 361 c 1,22,23
 508 303 508 303 512.5 258.5 c 128,-1,24
 517 214 517 214 518 202 c 0,25,26
 521 175 521 175 522.5 161 c 128,-1,27
 524 147 524 147 527.5 127.5 c 128,-1,28
 531 108 531 108 535 98.5 c 128,-1,29
 539 89 539 89 545.5 78.5 c 128,-1,30
 552 68 552 68 561.5 64 c 128,-1,31
 571 60 571 60 584 60 c 0,32,33
 588 60 588 60 591 60 c 0,34,35
 605 83 605 83 629.5 95.5 c 128,-1,36
 654 108 654 108 667 108 c 0,37,38
 683 108 683 108 683 96 c 0,39,40
 683 67 683 67 633.5 31 c 128,-1,41
 584 -5 584 -5 518 -5 c 0,42,43
 499 -5 499 -5 484.5 0 c 128,-1,44
 470 5 470 5 460.5 17 c 128,-1,45
 451 29 451 29 444.5 40 c 128,-1,46
 438 51 438 51 434 72 c 128,-1,47
 430 93 430 93 428.5 106 c 128,-1,48
 427 119 427 119 424 144 c 0,49,50
 420 181 420 181 408 305 c 1,51,52
 391 294 391 294 334 260.5 c 128,-1,53
 277 227 277 227 244 205 c 0,54,55
 205 179 205 179 183 162.5 c 128,-1,56
 161 146 161 146 152 134 c 128,-1,57
 143 122 143 122 141.5 116.5 c 128,-1,58
 140 111 140 111 140 99 c 0,59,60
 140 63 140 63 168 60 c 0,61,62
 179 57 179 57 179 48 c 0,63,64
 179 33 179 33 150.5 14 c 128,-1,65
 122 -5 122 -5 98 -5 c 0,66,67
 73 -5 73 -5 59 12 c 128,-1,68
 45 29 45 29 45 56 c 0,69,70
 45 71 45 71 47.5 81 c 128,-1,71
 50 91 50 91 60.5 108.5 c 128,-1,72
 71 126 71 126 96.5 148.5 c 128,-1,73
 122 171 122 171 163 200 c 0,74,75
 210 233 210 233 287.5 280.5 c 128,-1,76
 365 328 365 328 404 350 c 1,77,-1
 390 494 l 2,78,79
 382 572 382 572 368.5 597.5 c 128,-1,80
 355 623 355 623 319 623 c 1,81,82
 305 600 305 600 280.5 587.5 c 128,-1,83
 256 575 256 575 242 575 c 0,84,85
 226 575 226 575 226 587 c 0,86,87
 226 616 226 616 275.5 652 c 128,-1,88
 325 688 325 688 391 688 c 0,89,90
 413 688 413 688 428.5 680.5 c 128,-1,91
 444 673 444 673 453.5 662 c 128,-1,92
 463 651 463 651 469.5 631 c 128,-1,93
 476 611 476 611 478.5 595 c 128,-1,94
 481 579 481 579 484 552 c 2,0,-1
EndSplineSet
Validated: 3073
EndChar

StartChar: Y
Encoding: 89 89 24
Width: 668
VWidth: 1000
Flags: W
HStem: -140 87<110.044 223.172> 628 60<120.204 211.762>
VStem: 26 50<-20.1602 36.4204> 333 84<110 422.719> 672 50<460.117 575.768>
LayerCount: 2
Fore
SplineSet
414 110 m 1,0,1
 488 184 488 184 543.5 258.5 c 128,-1,2
 599 333 599 333 624.5 386.5 c 128,-1,3
 650 440 650 440 661 473.5 c 128,-1,4
 672 507 672 507 672 522 c 0,5,6
 672 549 672 549 656 572.5 c 128,-1,7
 640 596 640 596 602 600 c 0,8,9
 589 602 589 602 584 606.5 c 128,-1,10
 579 611 579 611 579 623 c 0,11,12
 579 631 579 631 582 644.5 c 128,-1,13
 585 658 585 658 595.5 673 c 128,-1,14
 606 688 606 688 622 688 c 0,15,16
 659 688 659 688 690.5 657.5 c 128,-1,17
 722 627 722 627 722 567 c 0,18,19
 722 542 722 542 712.5 503.5 c 128,-1,20
 703 465 703 465 680 406.5 c 128,-1,21
 657 348 657 348 606.5 269.5 c 128,-1,22
 556 191 556 191 486 110 c 0,23,24
 409 21 409 21 309 -59.5 c 128,-1,25
 209 -140 209 -140 154 -140 c 0,26,27
 94 -140 94 -140 60 -100.5 c 128,-1,28
 26 -61 26 -61 26 -21 c 0,29,30
 26 -1 26 -1 37.5 21 c 128,-1,31
 49 43 49 43 62 43 c 0,32,33
 71 43 71 43 76 26 c 0,34,35
 92 -43 92 -43 165 -52 c 0,36,37
 173 -53 173 -53 179 -53 c 0,38,39
 223 -53 223 -53 321 27 c 0,40,41
 325 30 325 30 327 32 c 0,42,43
 327 34 327 34 328 40 c 0,44,45
 333 105 333 105 333 181 c 0,46,47
 333 331 333 331 307 440 c 0,48,49
 263 625 263 625 139 628 c 1,50,51
 124 609 124 609 106 601.5 c 128,-1,52
 88 594 88 594 78 594 c 0,53,54
 63 594 63 594 63 607 c 0,55,56
 63 626 63 626 106.5 657 c 128,-1,57
 150 688 150 688 198 688 c 0,58,59
 242 688 242 688 277.5 666.5 c 128,-1,60
 313 645 313 645 335.5 613.5 c 128,-1,61
 358 582 358 582 374.5 534.5 c 128,-1,62
 391 487 391 487 399 446.5 c 128,-1,63
 407 406 407 406 411.5 354.5 c 128,-1,64
 416 303 416 303 416.5 276.5 c 128,-1,65
 417 250 417 250 417 217 c 0,66,67
 417 160 417 160 414 110 c 1,0,1
EndSplineSet
Validated: 3073
EndChar

StartChar: Z
Encoding: 90 90 25
Width: 724
VWidth: 1000
Flags: W
HStem: -5 72<318.016 559.152> 23 72<120.299 371.143> 319 79<529.031 592.729> 346 53<295.796 398 470 471.7> 588 72<527.832 627.749> 616 72<353.625 546.666>
LayerCount: 2
Fore
SplineSet
543 418 m 0,0,1
 541 415 541 415 537.5 411.5 c 128,-1,2
 534 408 534 408 530 404 c 128,-1,3
 526 400 526 400 524 398 c 1,4,5
 529 398 529 398 531 398 c 0,6,7
 601 395 601 395 601 362 c 0,8,9
 601 345 601 345 582.5 332 c 128,-1,10
 564 319 564 319 549 319 c 0,11,12
 532 319 532 319 531 333 c 2,13,-1
 529 338 l 1,14,15
 518 345 518 345 470 346 c 1,16,-1
 194 93 l 1,17,18
 209 95 209 95 227 95 c 0,19,20
 272 95 272 95 406 79 c 0,21,22
 498 67 498 67 560 67 c 1,23,24
 588 100 588 100 604 151 c 0,25,26
 611 173 611 173 644.5 193 c 128,-1,27
 678 213 678 213 697 213 c 0,28,29
 711 213 711 213 711 201 c 0,30,31
 711 194 711 194 704.5 175 c 128,-1,32
 698 156 698 156 678 123.5 c 128,-1,33
 658 91 658 91 630 66 c 0,34,35
 551 -5 551 -5 463 -5 c 0,36,37
 401 -5 401 -5 298 10 c 0,38,39
 179 23 179 23 143 23 c 0,40,41
 111 23 111 23 95 14 c 0,42,43
 65 -5 65 -5 45 -5 c 0,44,45
 32 -5 32 -5 32 7 c 0,46,47
 32 17 32 17 66 46 c 0,48,49
 183 145 183 145 222 183 c 2,50,-1
 223 183 l 1,51,52
 351 299 351 299 398 346 c 1,53,-1
 319 346 l 2,54,55
 288 346 288 346 288 360 c 0,56,57
 288 364 288 364 291 369.5 c 128,-1,58
 294 375 294 375 300.5 382 c 128,-1,59
 307 389 307 389 321.5 394 c 128,-1,60
 336 399 336 399 355 399 c 2,61,-1
 453 399 l 1,62,63
 554 503 554 503 628 589 c 1,64,65
 620 588 620 588 606 588 c 0,66,67
 573 588 573 588 478 605 c 0,68,69
 418 616 418 616 382 616 c 0,70,71
 336 616 336 616 320 603.5 c 128,-1,72
 304 591 304 591 293 558 c 0,73,74
 286 537 286 537 252.5 518 c 128,-1,75
 219 499 219 499 200 499 c 0,76,77
 186 499 186 499 186 512 c 0,78,79
 186 514 186 514 187.5 520 c 128,-1,80
 189 526 189 526 195 539 c 128,-1,81
 201 552 201 552 211 566 c 128,-1,82
 221 580 221 580 241 598 c 128,-1,83
 261 616 261 616 286 632 c 0,84,85
 378 688 378 688 466 688 c 0,86,87
 503 688 503 688 597 671 c 0,88,89
 654 660 654 660 695 660 c 1,90,91
 733 688 733 688 759 688 c 0,92,93
 772 688 772 688 772 676 c 0,94,95
 772 665 772 665 695.5 579.5 c 128,-1,96
 619 494 619 494 543 418 c 0,0,1
EndSplineSet
Validated: 3073
EndChar

StartChar: lparenBigg
Encoding: 0 40 26
Width: 269
VWidth: 1069
Flags: W
VStem: 81 34<59.176 444.997> 245 15<-246.094 -244 744 746.094>
LayerCount: 2
Fore
SplineSet
242 -252 m 2,0,1
 153 -162 153 -162 114 -30 c 0,2,3
 76 100 76 100 76 250 c 0,4,5
 76 586 76 586 244 755 c 1,6,7
 257 755 l 0,8,9
 265 755 265 755 265 746 c 0,10,11
 264 742 l 0,12,-1
 263 741 l 2,13,14
 120 598 120 598 120 250 c 128,-1,15
 120 -98 120 -98 263 -241 c 2,16,-1
 264 -242 l 0,17,-1
 265 -246 l 1,18,19
 265 -255 265 -255 257 -255 c 2,20,-1
 248 -255 l 1,21,-1
 246 -255 l 1,22,-1
 245 -255 l 1,23,-1
 242 -252 l 2,0,1
EndSplineSet
Validated: 19457
EndChar

StartChar: rparenBigg
Encoding: 1 41 27
Width: 269
VWidth: 1069
Flags: W
VStem: 156 34<59.3001 445.129>
LayerCount: 2
Fore
SplineSet
8 741 m 0,0,1
 6 743 6 743 6 746 c 0,2,3
 6 755 6 755 14 755 c 2,4,-1
 24 755 l 2,5,6
 27 755 27 755 30 753 c 0,7,8
 195 585 195 585 195 250 c 128,-1,9
 195 -85 195 -85 30 -253 c 0,10,11
 28 -255 28 -255 24 -255 c 2,12,-1
 14 -255 l 2,13,14
 6 -255 6 -255 6 -246 c 0,15,16
 6 -243 6 -243 8 -241 c 0,17,18
 151 -78 151 -78 151 250 c 0,19,20
 151 579 151 579 8 741 c 0,0,1
EndSplineSet
Validated: 19457
EndChar

StartChar: lbrackBigg
Encoding: 2 91 28
Width: 198
VWidth: 1069
Flags: W
HStem: -250 23<116 197> 727 23<116 197>
VStem: 93 104<-250 -227 727 750> 93 23<-227 727>
LayerCount: 2
Fore
SplineSet
88 -250 m 1,0,-1
 88 750 l 1,1,-1
 88 755 l 1,2,-1
 93 755 l 1,3,-1
 197 755 l 1,4,-1
 202 755 l 1,5,-1
 202 750 l 1,6,-1
 202 727 l 1,7,-1
 202 722 l 1,8,-1
 197 722 l 1,9,-1
 121 722 l 1,10,-1
 121 -222 l 1,11,-1
 197 -222 l 1,12,-1
 202 -222 l 1,13,-1
 202 -227 l 1,14,-1
 202 -250 l 1,15,-1
 202 -255 l 1,16,-1
 197 -255 l 1,17,-1
 93 -255 l 1,18,-1
 88 -255 l 1,19,-1
 88 -250 l 1,0,-1
EndSplineSet
Validated: 19457
EndChar

StartChar: rbrackBigg
Encoding: 3 93 29
Width: 198
VWidth: 1069
Flags: W
HStem: -250 23<3 84> 727 23<3 84>
VStem: 3 104<-250 -227 727 750> 84 23<-227 727>
LayerCount: 2
Fore
SplineSet
-2 -250 m 1,0,-1
 -2 -227 l 1,1,-1
 -2 -222 l 1,2,-1
 3 -222 l 1,3,-1
 79 -222 l 1,4,-1
 79 722 l 1,5,-1
 3 722 l 1,6,-1
 -2 722 l 1,7,-1
 -2 727 l 1,8,-1
 -2 750 l 1,9,-1
 -2 755 l 1,10,-1
 3 755 l 1,11,-1
 107 755 l 1,12,-1
 112 755 l 1,13,-1
 112 750 l 1,14,-1
 112 -250 l 1,15,-1
 112 -255 l 1,16,-1
 107 -255 l 1,17,-1
 3 -255 l 1,18,-1
 -2 -255 l 1,19,-1
 -2 -250 l 1,0,-1
EndSplineSet
Validated: 19457
EndChar

StartChar: lbraceBigg
Encoding: 4 123 30
Width: 274
VWidth: 1069
Flags: W
HStem: 243 15<50.9531 60.7799>
VStem: 121 34<-182.845 185.517 314.913 682.415>
LayerCount: 2
Fore
SplineSet
138 -195 m 0,0,1
 116 -161 116 -161 116 -124 c 2,2,-1
 116 122 l 2,3,4
 116 158 116 158 98 189 c 128,-1,5
 80 220 80 220 48 239 c 0,6,7
 44 242 44 242 44 245 c 2,8,-1
 44 255 l 1,9,-1
 47 261 l 1,10,11
 116 302 116 302 116 378 c 2,12,-1
 116 624 l 2,13,14
 116 661 116 661 138 695 c 0,15,16
 157 723 157 723 183 739 c 0,17,18
 205 753 205 753 213 755 c 2,19,-1
 214 755 l 1,20,-1
 223 755 l 2,21,22
 231 755 231 755 231 747 c 2,23,-1
 231 737 l 2,24,25
 231 733 231 733 229 730 c 2,26,-1
 228 730 l 1,27,-1
 227 730 l 2,28,29
 197 714 197 714 178.5 685 c 128,-1,30
 160 656 160 656 160 623 c 2,31,-1
 160 377 l 2,32,33
 160 338 160 338 137.5 304.5 c 128,-1,34
 115 271 115 271 80 250 c 1,35,36
 115 229 115 229 137.5 196 c 128,-1,37
 160 163 160 163 160 124 c 2,38,-1
 160 -123 l 2,39,40
 160 -157 160 -157 178.5 -185.5 c 128,-1,41
 197 -214 197 -214 229 -232 c 0,42,43
 231 -234 231 -234 231 -237 c 2,44,-1
 231 -247 l 2,45,46
 231 -255 231 -255 223 -255 c 2,47,-1
 214 -255 l 1,48,-1
 213 -255 l 2,49,50
 205 -254 205 -254 183 -239 c 0,51,52
 157 -223 157 -223 138 -195 c 0,0,1
EndSplineSet
Validated: 19457
EndChar

StartChar: rbraceBigg
Encoding: 5 125 31
Width: 274
VWidth: 1069
Flags: W
HStem: 243 15<215.22 225.046>
VStem: 121 34<-182.845 185.517 314.913 682.415>
LayerCount: 2
Fore
SplineSet
49 -230 m 2,0,1
 79 -214 79 -214 97.5 -185 c 128,-1,2
 116 -156 116 -156 116 -123 c 2,3,-1
 116 124 l 2,4,5
 116 163 116 163 138.5 196.5 c 128,-1,6
 161 230 161 230 196 250 c 1,7,8
 160 271 160 271 138 304.5 c 128,-1,9
 116 338 116 338 116 377 c 2,10,-1
 116 623 l 2,11,12
 116 656 116 656 97.5 684.5 c 128,-1,13
 79 713 79 713 49 730 c 2,14,-1
 48 730 l 1,15,-1
 47 730 l 2,16,17
 44 733 44 733 44 737 c 2,18,-1
 44 747 l 2,19,20
 44 755 44 755 53 755 c 2,21,-1
 62 755 l 1,22,-1
 63 755 l 2,23,24
 70 754 70 754 92 739 c 0,25,26
 120 721 120 721 138 695 c 0,27,28
 160 661 160 661 160 624 c 2,29,-1
 160 378 l 2,30,31
 160 343 160 343 178 311.5 c 128,-1,32
 196 280 196 280 228 262 c 0,33,34
 231 260 231 260 231 255 c 2,35,-1
 231 245 l 2,36,37
 231 242 231 242 229 240 c 0,38,39
 160 199 160 199 160 122 c 2,40,-1
 160 -124 l 2,41,42
 160 -161 160 -161 138 -195 c 0,43,44
 119 -221 119 -221 92 -239 c 0,45,46
 70 -254 70 -254 63 -255 c 2,47,-1
 62 -255 l 1,48,-1
 53 -255 l 2,49,50
 44 -255 44 -255 44 -247 c 2,51,-1
 44 -237 l 1,52,-1
 44 -233 l 1,53,-1
 45 -233 l 1,54,-1
 49 -230 l 2,0,1
EndSplineSet
Validated: 19457
EndChar

StartChar: slashBigg
Encoding: 6 47 32
Width: 436
VWidth: 1069
Flags: W
VStem: 19 20<-249.952 -243> 398 20<743 749.952>
LayerCount: 2
Fore
SplineSet
14 -240 m 1,0,-1
 16 -235 l 1,1,2
 362 663 362 663 393 745 c 0,3,4
 396 753 396 753 407 755 c 2,5,-1
 408 755 l 1,6,-1
 409 755 l 2,7,8
 421 753 421 753 423 741 c 2,9,-1
 423 740 l 1,10,-1
 423 737 l 1,11,-1
 423 736 l 1,12,-1
 423 735 l 1,13,-1
 44 -245 l 2,14,15
 41 -253 41 -253 30 -255 c 2,16,-1
 29 -255 l 1,17,-1
 28 -255 l 2,18,19
 16 -253 16 -253 14 -241 c 2,20,-1
 14 -240 l 1,0,-1
EndSplineSet
Validated: 19457
EndChar

StartChar: backslashBigg
Encoding: 7 92 33
Width: 436
VWidth: 1069
Flags: W
VStem: 19 20<744 749.952> 399 19<-249.9 -244>
LayerCount: 2
Fore
SplineSet
394 -246 m 1,0,-1
 15 735 l 2,1,2
 14 738 14 738 14 740 c 0,3,-1
 14 741 l 2,4,5
 16 753 16 753 28 755 c 2,6,-1
 29 755 l 1,7,-1
 30 755 l 2,8,9
 40 752 40 752 43 746 c 2,10,-1
 44 746 l 1,11,-1
 423 -235 l 1,12,-1
 423 -236 l 1,13,-1
 423 -237 l 1,14,-1
 423 -240 l 1,15,-1
 423 -241 l 2,16,17
 421 -253 421 -253 409 -255 c 2,18,-1
 408 -255 l 1,19,-1
 407 -255 l 2,20,21
 398 -253 398 -253 395 -246 c 2,22,-1
 394 -246 l 1,0,-1
EndSplineSet
Validated: 19457
EndChar

StartChar: lceilBigg
Encoding: 8 8968 34
Width: 217
VWidth: 1069
Flags: W
HStem: 727 23<116 216>
VStem: 93 23<-250 727>
LayerCount: 2
Fore
SplineSet
88 -250 m 1,0,-1
 88 750 l 1,1,-1
 88 755 l 1,2,-1
 93 755 l 1,3,-1
 216 755 l 1,4,-1
 221 755 l 1,5,-1
 221 750 l 1,6,-1
 221 727 l 1,7,-1
 221 722 l 1,8,-1
 216 722 l 1,9,-1
 121 722 l 1,10,-1
 121 -250 l 1,11,-1
 121 -255 l 1,12,-1
 116 -255 l 1,13,-1
 93 -255 l 1,14,-1
 88 -255 l 1,15,-1
 88 -250 l 1,0,-1
EndSplineSet
Validated: 19457
EndChar

StartChar: rceilBigg
Encoding: 9 8969 35
Width: 217
VWidth: 1069
Flags: W
HStem: 727 23<3 103>
VStem: 103 23<-250 727>
LayerCount: 2
Fore
SplineSet
98 -250 m 1,0,-1
 98 722 l 1,1,-1
 3 722 l 1,2,-1
 -2 722 l 1,3,-1
 -2 727 l 1,4,-1
 -2 750 l 1,5,-1
 -2 755 l 1,6,-1
 3 755 l 1,7,-1
 126 755 l 1,8,-1
 131 755 l 1,9,-1
 131 750 l 1,10,-1
 131 -250 l 1,11,-1
 131 -255 l 1,12,-1
 126 -255 l 1,13,-1
 103 -255 l 1,14,-1
 98 -255 l 1,15,-1
 98 -250 l 1,0,-1
EndSplineSet
Validated: 19457
EndChar

StartChar: lfloorBigg
Encoding: 10 8970 36
Width: 217
VWidth: 1069
Flags: W
HStem: -250 23<116 216>
VStem: 93 23<-227 750>
LayerCount: 2
Fore
SplineSet
88 -250 m 1,0,-1
 88 750 l 1,1,-1
 88 755 l 1,2,-1
 93 755 l 1,3,-1
 116 755 l 1,4,-1
 121 755 l 1,5,-1
 121 750 l 1,6,-1
 121 -222 l 1,7,-1
 216 -222 l 1,8,-1
 221 -222 l 1,9,-1
 221 -227 l 1,10,-1
 221 -250 l 1,11,-1
 221 -255 l 1,12,-1
 216 -255 l 1,13,-1
 93 -255 l 1,14,-1
 88 -255 l 1,15,-1
 88 -250 l 1,0,-1
EndSplineSet
Validated: 19457
EndChar

StartChar: rfloorBigg
Encoding: 11 8971 37
Width: 217
VWidth: 1069
Flags: W
HStem: -250 23<3 103>
VStem: 103 23<-227 750>
LayerCount: 2
Fore
SplineSet
-2 -250 m 1,0,-1
 -2 -227 l 1,1,-1
 -2 -222 l 1,2,-1
 3 -222 l 1,3,-1
 98 -222 l 1,4,-1
 98 750 l 1,5,-1
 98 755 l 1,6,-1
 103 755 l 1,7,-1
 126 755 l 1,8,-1
 131 755 l 1,9,-1
 131 750 l 1,10,-1
 131 -250 l 1,11,-1
 131 -255 l 1,12,-1
 126 -255 l 1,13,-1
 3 -255 l 1,14,-1
 -2 -255 l 1,15,-1
 -2 -250 l 1,0,-1
EndSplineSet
Validated: 19457
EndChar

StartChar: langleBigg
Encoding: 12 12296 38
Width: 274
VWidth: 1069
Flags: W
VStem: 217 22<-249.952 -243 743 749.952>
LayerCount: 2
Fore
SplineSet
244 -234 m 2,0,1
 245 -236 245 -236 244 -240 c 2,2,-1
 244 -241 l 2,3,4
 242 -253 242 -253 230 -255 c 2,5,-1
 229 -255 l 1,6,-1
 227 -255 l 1,7,-1
 226 -255 l 2,8,9
 217 -253 217 -253 213 -245 c 2,10,-1
 212 -245 l 1,11,-1
 43 244 l 1,12,-1
 42 250 l 2,13,14
 42 252 42 252 43 256 c 2,15,-1
 212 745 l 1,16,-1
 213 745 l 2,17,18
 216 753 216 753 226 755 c 2,19,-1
 227 755 l 1,20,-1
 229 755 l 1,21,-1
 230 755 l 2,22,23
 242 753 242 753 244 741 c 2,24,-1
 244 740 l 1,25,-1
 244 734 l 1,26,-1
 76 250 l 1,27,-1
 244 -234 l 2,0,1
EndSplineSet
Validated: 19457
EndChar

StartChar: rangleBigg
Encoding: 13 12297 39
Width: 274
VWidth: 1069
Flags: W
VStem: 36 22<-249.952 -243 743 749.952>
LayerCount: 2
Fore
SplineSet
46 -255 m 1,0,1
 33 -253 33 -253 31 -241 c 2,2,-1
 31 -240 l 1,3,-1
 31 -238 l 2,4,5
 31 -236 31 -236 33 -231 c 2,6,-1
 199 250 l 1,7,-1
 32 732 l 2,8,9
 31 736 31 736 31 738 c 2,10,-1
 31 740 l 1,11,-1
 31 741 l 2,12,13
 33 753 33 753 46 755 c 2,14,-1
 47 755 l 1,15,-1
 49 755 l 1,16,-1
 50 755 l 2,17,18
 59 753 59 753 62 745 c 2,19,-1
 63 745 l 1,20,-1
 232 256 l 2,21,22
 233 254 233 254 233 251 c 2,23,-1
 233 249 l 1,24,-1
 233 247 l 1,25,-1
 233 246 l 1,26,-1
 233 245 l 1,27,-1
 63 -245 l 1,28,-1
 62 -245 l 2,29,30
 58 -253 58 -253 50 -255 c 2,31,-1
 49 -255 l 1,32,-1
 47 -255 l 1,33,-1
 46 -255 l 1,0,1
EndSplineSet
Validated: 19457
EndChar
